<?xml version="1.0" encoding="UTF-8" standalone="no"?><!-- Generator: Gravit.io --><svg xmlns="http://www.w3.org/2000/svg" xmlns:xlink="http://www.w3.org/1999/xlink" style="isolation:isolate" viewBox="0 0 512 512" width="512pt" height="512pt"><g><g><path d=" M 511.063 289.861 L 482.383 201.712 L 425.629 26.869 C 424.289 22.869 420.543 20.173 416.324 20.173 C 412.106 20.173 408.359 22.869 407.019 26.869 L 350.265 201.606 L 161.696 201.606 L 104.942 26.869 C 103.611 22.865 99.865 20.163 95.645 20.163 C 91.425 20.163 87.679 22.865 86.348 26.869 L 29.685 201.606 L 1.004 289.861 C -1.609 297.899 1.243 306.706 8.072 311.686 L 256.004 491.837 L 503.89 311.686 C 510.75 306.729 513.645 297.922 511.063 289.861" fill="rgb(252,109,38)"/></g><g><path d=" M 256.004 491.701 L 256.004 491.701 L 350.28 201.59 L 161.772 201.59 L 256.004 491.701 Z " fill="rgb(226,67,41)"/></g><g><path d=" M 256.004 491.701 L 161.696 201.59 L 29.745 201.59 L 256.004 491.701 Z " fill="rgb(252,109,38)"/></g><g><path d=" M 29.639 201.681 L 29.639 201.681 L 0.959 289.831 C -1.655 297.869 1.197 306.676 8.027 311.656 L 256.004 491.837 L 29.639 201.681 Z " fill="rgb(252,163,38)"/></g><g><path d=" M 29.685 201.681 L 161.803 201.681 L 104.942 26.96 C 103.603 22.96 99.856 20.264 95.638 20.264 C 91.419 20.264 87.673 22.96 86.333 26.96 L 29.685 201.681 Z " fill="rgb(226,67,41)"/></g><g><path d=" M 256.004 491.701 L 350.28 201.59 L 482.444 201.59 L 256.004 491.701 Z " fill="rgb(252,109,38)"/></g><g><path d=" M 482.353 201.681 L 482.353 201.681 L 511.033 289.831 C 513.662 297.869 510.807 306.685 503.965 311.656 L 256.004 491.701 L 482.292 201.681 L 482.353 201.681 Z " fill="rgb(252,163,38)"/></g><g><path d=" M 482.413 201.681 L 350.311 201.681 L 407.065 26.96 C 408.396 22.956 412.142 20.254 416.362 20.254 C 420.582 20.254 424.328 22.956 425.659 26.96 L 482.413 201.681 Z " fill="rgb(226,67,41)"/></g></g></svg>